<mxfile host="app.diagrams.net" modified="2024-10-14T16:42:58.700Z" agent="Mozilla/5.0 (Windows NT 10.0; Win64; x64) AppleWebKit/537.36 (KHTML, like Gecko) Chrome/129.0.0.0 Safari/537.36" version="24.4.14" etag="OOcJemhc0Tn6AcgX4m85" type="github">
  <diagram name="第 1 页" id="a4JA3Ud6sJDDiOkQv7qk">
    <mxGraphModel>
      <root>
        <mxCell id="0" />
        <mxCell id="1" parent="0" />
      </root>
    </mxGraphModel>
  </diagram>
</mxfile>
